<svg viewBox="0 0 32 32" xmlns="http://www.w3.org/2000/svg">
  <!-- Dark background circle -->
  <circle cx="16" cy="16" r="16" fill="#1a2332"/>
  
  <!-- Go-kart body -->
  <path d="M8 18 L22 18 C23 18 24 17 24 16 L24 14 C24 13 23 12 22 12 L8 12 C7 12 6 13 6 14 L6 16 C6 17 7 18 8 18 Z" fill="#2b9ce6"/>
  
  <!-- Driver helmet -->
  <circle cx="18" cy="10" r="3.5" fill="#2b9ce6"/>
  <path d="M16 8 L20 8 C20.5 8 21 8.5 21 9 L21 10 C21 10.5 20.5 11 20 11 L16 11 C15.5 11 15 10.5 15 10 L15 9 C15 8.5 15.5 8 16 8 Z" fill="white"/>
  
  <!-- Wheels -->
  <circle cx="10" cy="20" r="2.5" fill="#1a2332" stroke="#2b9ce6" stroke-width="1"/>
  <circle cx="20" cy="20" r="2.5" fill="#1a2332" stroke="#2b9ce6" stroke-width="1"/>
  
  <!-- Speed lines -->
  <path d="M4 14 L6 14" stroke="#f59e0b" stroke-width="1.5" stroke-linecap="round"/>
  <path d="M3 16 L5 16" stroke="#f59e0b" stroke-width="1.5" stroke-linecap="round"/>
  
  <!-- Checkered flag -->
  <rect x="24" y="8" width="4" height="3" fill="white"/>
  <rect x="24" y="8" width="2" height="1.5" fill="#1a2332"/>
  <rect x="26" y="9.5" width="2" height="1.5" fill="#1a2332"/>
</svg>