
<svg width="152" height="152" viewBox="0 0 152 152" xmlns="http://www.w3.org/2000/svg">
  <!-- Dark background circle -->
  <circle cx="76" cy="76" r="76" fill="#1a2332"/>
  
  <!-- Go-kart body (red for admin) -->
  <path d="M38 85.5 L104.5 85.5 C109.25 85.5 114 80.75 114 76 L114 66.5 C114 61.75 109.25 57 104.5 57 L38 57 C33.25 57 28.5 61.75 28.5 66.5 L28.5 76 C28.5 80.75 33.25 85.5 38 85.5 Z" fill="#e74c3c"/>
  
  <!-- Driver helmet (red for admin) -->
  <circle cx="85.5" cy="47.5" r="16.625" fill="#e74c3c"/>
  <path d="M76 38 L95 38 C97.375 38 99.75 40.375 99.75 42.75 L99.75 47.5 C99.75 49.875 97.375 52.25 95 52.25 L76 52.25 C73.625 52.25 71.25 49.875 71.25 47.5 L71.25 42.75 C71.25 40.375 73.625 38 76 38 Z" fill="white"/>
  
  <!-- Wheels (red accent for admin) -->
  <circle cx="47.5" cy="95" r="11.875" fill="#1a2332" stroke="#e74c3c" stroke-width="4.75"/>
  <circle cx="95" cy="95" r="11.875" fill="#1a2332" stroke="#e74c3c" stroke-width="4.75"/>
  
  <!-- Speed lines -->
  <path d="M19 66.5 L28.5 66.5" stroke="#f59e0b" stroke-width="7.125" stroke-linecap="round"/>
  <path d="M14.25 76 L23.75 76" stroke="#f59e0b" stroke-width="7.125" stroke-linecap="round"/>
  
  <!-- Checkered flag -->
  <rect x="114" y="38" width="19" height="14.25" fill="white"/>
  <rect x="114" y="38" width="9.5" height="7.125" fill="#1a2332"/>
  <rect x="123.5" y="45.125" width="9.5" height="7.125" fill="#1a2332"/>
  
  <!-- Admin badge (small "A" indicator) -->
  <circle cx="123.5" cy="28.5" r="9.5" fill="#e74c3c"/>
  <text x="123.5" y="32.3" text-anchor="middle" fill="white" font-family="Arial, sans-serif" font-weight="bold" font-size="11.875">A</text>
</svg>